<?xml version="1.0" encoding="UTF-8" standalone="no"?><!DOCTYPE svg PUBLIC "-//W3C//DTD SVG 1.1//EN" "http://www.w3.org/Graphics/SVG/1.1/DTD/svg11.dtd"><svg width="100%" height="100%" viewBox="0 0 600 600" version="1.1" xmlns="http://www.w3.org/2000/svg" xmlns:xlink="http://www.w3.org/1999/xlink" xml:space="preserve" xmlns:serif="http://www.serif.com/" style="fill-rule:evenodd;clip-rule:evenodd;stroke-linejoin:round;stroke-miterlimit:2;"><rect x="0" y="0" width="600" height="600" style="fill:#fff;"/><path d="M281.902,480.449l-139.462,-303.676l-0,241.131c-0,22.179 2.395,36.019 7.186,41.519c6.565,7.452 16.945,11.178 31.139,11.178l12.776,0l-0,9.848l-125.623,-0l0,-9.848l12.775,0c15.26,0 26.083,-4.613 32.471,-13.839c3.903,-5.678 5.855,-18.631 5.855,-38.858l-0,-235.808c-0,-15.969 -1.774,-27.502 -5.323,-34.599c-2.484,-5.146 -7.053,-9.448 -13.707,-12.908c-6.653,-3.46 -17.344,-5.19 -32.071,-5.19l0,-9.848l102.201,0l130.946,282.384l128.816,-282.384l102.201,0l-0,9.848l-12.509,-0c-15.437,-0 -26.349,4.613 -32.737,13.839c-3.903,5.678 -5.855,18.631 -5.855,38.858l0,235.808c0,22.179 2.484,36.019 7.452,41.519c6.565,7.452 16.945,11.178 31.14,11.178l12.509,0l-0,9.848l-153.302,-0l0,-9.848l12.775,0c15.437,0 26.26,-4.613 32.47,-13.839c3.904,-5.678 5.856,-18.631 5.856,-38.858l-0,-241.131l-139.196,303.676l-8.783,-0Z" style="fill-rule:nonzero;"/></svg>